<?xml version="1.0" encoding="utf-8"?>
<svg version="1.1"
	 id="svg4605" xmlns:inkscape="http://www.inkscape.org/namespaces/inkscape" xmlns:sodipodi="http://sodipodi.sourceforge.net/DTD/sodipodi-0.dtd" xmlns:svg="http://www.w3.org/2000/svg"
	 xmlns="http://www.w3.org/2000/svg" xmlns:xlink="http://www.w3.org/1999/xlink" x="0px" y="0px" viewBox="0 0 151.1 151.2"
	 style="enable-background:new 0 0 45 45;" width="45" height="45" xml:space="preserve">
<style type="text/css">
	.st0{fill:#51A2DA;}
</style>
<sodipodi:namedview  bordercolor="#666666" borderopacity="1.0" fit-margin-bottom="0" fit-margin-left="0" fit-margin-right="0" fit-margin-top="0" id="namedview4607" inkscape:current-layer="layer1" inkscape:cx="100.76667" inkscape:cy="100.91706" inkscape:document-units="mm" inkscape:pagecheckerboard="0" inkscape:pageopacity="0.0" inkscape:pageshadow="2" inkscape:window-height="976" inkscape:window-maximized="0" inkscape:window-width="1471" inkscape:window-x="26" inkscape:window-y="23" inkscape:zoom="3.3245121" pagecolor="#ffffff" showgrid="false">
	</sodipodi:namedview>
<g id="layer1" transform="translate(192.71681,37.81481)" inkscape:groupmode="layer" inkscape:label="Layer 1">
	<path id="path4462" class="st0" d="M-117.1-37.8c-41.7,0-75.5,33.8-75.6,75.5h0v58.5h0c0,9.5,7.7,17.1,17.2,17.1h0.1h0h58.3
		c41.7,0,75.5-33.8,75.5-75.6C-41.6-4-75.4-37.8-117.1-37.8L-117.1-37.8z M-101.8-6.7c12.7,0,24.7,9.7,24.7,23.1
		c0,1.2,0,2.5-0.2,3.9c-0.4,3.6-3.6,6.1-7.2,5.6c-3.5-0.5-6-3.9-5.3-7.4c0.1-0.4,0.1-1,0.1-2.1c0-7.6-6.2-10.5-12.1-10.5
		c-5.9,0-11.2,4.9-11.2,10.5c0.1,6.5,0,12.9,0,19.3l10.9-0.1c8.5-0.2,8.6,12.7,0.1,12.6l-11,0.1c0,5.2,0,4.3,0,6.9
		c0,0,0.1,6.4-0.1,11.2c-1.3,14.2-13.4,25.5-27.9,25.5c-15.4,0-28-12.6-28-28c0.5-15.8,13.1-28.3,29-28.1l8.9-0.1v12.6l-8.9,0.1
		h-0.1c-8.7,0.3-16.2,6.2-16.4,15.5c0,8.5,6.9,15.4,15.4,15.4c8.5,0,15.4-6.2,15.4-15.3c0.1-15.1-0.1-31.9,0-47.6
		c0-0.9,0-1.6,0.1-2.6C-124,2.2-113.6-6.7-101.8-6.7L-101.8-6.7z"/>
</g>
</svg>

