<svg xmlns="http://www.w3.org/2000/svg" fill="none" x="0px" y="0px" width="48" height="48" viewBox="0 0 72 72">
  <path fill="#73ba25" d="M36 0C16.12 0 0 16.12 0 36s16.12 36 36 36 36-16.12 36-36S55.88 0 36 0Zm0 4.5c17.4 0 31.5 14.1 31.5 31.5S53.4 67.5 36 67.5c-9.09-.02-17.74-3.96-23.71-10.82 2.27-1.64 5.99-1.22 10.57-.71 2.23.26 4.77.55 7.4.61 7.34.05 15.24-1.31 20.11-3.44 3.15-1.37 5.16-2.28 6.42-3.43.45-.38.69-.98.93-1.64l.17-.43c.2-.53.5-1.65.63-2.27.05-.27.11-.54-.11-.71-.2-.16-.67.13-.67.13-2.14 1.29-7.48 3.73-12.48 3.83-6.21.13-18.78-6.28-20.08-6.96-.87-2.08-1.74-4.15-2.63-6.22 9 5.93 16.46 9.2 22.17 9.71 6.36.57 11.31-2.9 13.47-4.35.28-.19.56-.4.82-.6s.15-.13.14-.22c-.36-2.23-3.68-13.04-6.19-15.64-.69-.71-1.25-1.41-2.37-2.06-9.09-5.3-30.66-8.5-31.67-8.64 0 0-.1-.02-.17.05-.05.05-.07.16-.07.16s-.08 4.47-.1 4.97c-.81-.27-3.53-1.16-7.38-2.18C17.16 8.99 26.31 4.52 36 4.5Zm6.57 18.27h.46c5.08.18 9.08 4.47 8.9 9.55-.1 2.46-1.13 4.75-2.92 6.42-1.8 1.69-4.15 2.56-6.63 2.48-5.08-.19-9.07-4.47-8.9-9.55.09-2.46 1.12-4.75 2.92-6.43 1.69-1.58 3.86-2.44 6.16-2.48Zm.06 2.72c-1.61.02-3.12.62-4.29 1.72-1.25 1.17-1.99 2.76-2.04 4.48-.12 3.55 2.66 6.54 6.21 6.67 1.72.05 3.37-.56 4.62-1.73 1.26-1.18 1.98-2.77 2.03-4.48.12-3.55-2.66-6.54-6.21-6.66h-.32Zm1.38 3.23c1.58 0 2.86.85 2.86 1.91s-1.28 1.9-2.86 1.9-2.85-.85-2.85-1.9 1.28-1.91 2.85-1.91Z"/>
</svg>
